<mxfile host="app.diagrams.net" agent="Mozilla/5.0 (Windows NT 10.0; Win64; x64) AppleWebKit/537.36 (KHTML, like Gecko) Chrome/131.0.0.0 Safari/537.36 OPR/116.0.0.0" version="26.0.16">
  <diagram name="Página-1" id="har_h1RfgNVgCWCfJMPc">
    <mxGraphModel dx="1008" dy="537" grid="1" gridSize="10" guides="1" tooltips="1" connect="1" arrows="1" fold="1" page="1" pageScale="1" pageWidth="827" pageHeight="1169" math="0" shadow="0">
      <root>
        <mxCell id="0" />
        <mxCell id="1" parent="0" />
        <mxCell id="UNL7QGV5cmLo08s9R7C7-1" value="USUARIO" style="shape=umlActor;html=1;verticalLabelPosition=bottom;verticalAlign=top;align=center;" vertex="1" parent="1">
          <mxGeometry x="30" y="340" width="30" height="60" as="geometry" />
        </mxCell>
        <mxCell id="UNL7QGV5cmLo08s9R7C7-2" value="" style="rounded=0;whiteSpace=wrap;html=1;" vertex="1" parent="1">
          <mxGeometry x="240" y="60" width="330" height="460" as="geometry" />
        </mxCell>
        <mxCell id="UNL7QGV5cmLo08s9R7C7-3" value="&lt;font style=&quot;font-size: 20px;&quot;&gt;SIMPLE REPORT&lt;/font&gt;" style="text;html=1;align=center;verticalAlign=middle;whiteSpace=wrap;rounded=0;" vertex="1" parent="1">
          <mxGeometry x="217" y="67" width="230" height="30" as="geometry" />
        </mxCell>
        <mxCell id="UNL7QGV5cmLo08s9R7C7-5" value="" style="edgeStyle=none;html=1;endArrow=block;endFill=0;endSize=12;verticalAlign=bottom;rounded=0;" edge="1" parent="1">
          <mxGeometry width="160" relative="1" as="geometry">
            <mxPoint x="120" y="290" as="sourcePoint" />
            <mxPoint x="60" y="340" as="targetPoint" />
          </mxGeometry>
        </mxCell>
        <mxCell id="UNL7QGV5cmLo08s9R7C7-6" value="USUARIO&lt;div&gt;REGISTRADO&lt;/div&gt;" style="shape=umlActor;html=1;verticalLabelPosition=bottom;verticalAlign=top;align=center;" vertex="1" parent="1">
          <mxGeometry x="130" y="250" width="30" height="60" as="geometry" />
        </mxCell>
        <mxCell id="UNL7QGV5cmLo08s9R7C7-8" value="" style="edgeStyle=none;html=1;endArrow=block;endFill=0;endSize=12;verticalAlign=bottom;rounded=0;" edge="1" parent="1">
          <mxGeometry width="160" relative="1" as="geometry">
            <mxPoint x="110" y="470" as="sourcePoint" />
            <mxPoint x="70" y="420" as="targetPoint" />
          </mxGeometry>
        </mxCell>
        <mxCell id="UNL7QGV5cmLo08s9R7C7-9" value="NUEVO&lt;div&gt;USUARIO&lt;/div&gt;" style="shape=umlActor;html=1;verticalLabelPosition=bottom;verticalAlign=top;align=center;" vertex="1" parent="1">
          <mxGeometry x="120" y="450" width="30" height="60" as="geometry" />
        </mxCell>
        <mxCell id="UNL7QGV5cmLo08s9R7C7-12" value="Registro&lt;div&gt;Usuario&lt;/div&gt;" style="ellipse;whiteSpace=wrap;html=1;" vertex="1" parent="1">
          <mxGeometry x="330" y="430" width="140" height="70" as="geometry" />
        </mxCell>
        <mxCell id="UNL7QGV5cmLo08s9R7C7-13" value="" style="edgeStyle=none;html=1;endArrow=none;verticalAlign=bottom;rounded=0;entryX=0;entryY=0.5;entryDx=0;entryDy=0;" edge="1" parent="1" target="UNL7QGV5cmLo08s9R7C7-12">
          <mxGeometry width="160" relative="1" as="geometry">
            <mxPoint x="160" y="500" as="sourcePoint" />
            <mxPoint x="320" y="500" as="targetPoint" />
          </mxGeometry>
        </mxCell>
        <mxCell id="UNL7QGV5cmLo08s9R7C7-51" style="edgeStyle=orthogonalEdgeStyle;rounded=0;orthogonalLoop=1;jettySize=auto;html=1;exitX=1;exitY=0.5;exitDx=0;exitDy=0;entryX=0.5;entryY=0;entryDx=0;entryDy=0;dashed=1;" edge="1" parent="1" source="UNL7QGV5cmLo08s9R7C7-16" target="UNL7QGV5cmLo08s9R7C7-25">
          <mxGeometry relative="1" as="geometry" />
        </mxCell>
        <mxCell id="UNL7QGV5cmLo08s9R7C7-52" value="&amp;lt;&amp;lt;include&amp;gt;&amp;gt;" style="edgeLabel;html=1;align=center;verticalAlign=middle;resizable=0;points=[];" vertex="1" connectable="0" parent="UNL7QGV5cmLo08s9R7C7-51">
          <mxGeometry x="-0.1241" y="1" relative="1" as="geometry">
            <mxPoint x="-19" as="offset" />
          </mxGeometry>
        </mxCell>
        <mxCell id="UNL7QGV5cmLo08s9R7C7-16" value="Selección&lt;div&gt;Centro&lt;/div&gt;" style="ellipse;whiteSpace=wrap;html=1;" vertex="1" parent="1">
          <mxGeometry x="262" y="120" width="140" height="70" as="geometry" />
        </mxCell>
        <mxCell id="UNL7QGV5cmLo08s9R7C7-25" value="Selección&lt;div&gt;Pacientes&lt;/div&gt;" style="ellipse;whiteSpace=wrap;html=1;" vertex="1" parent="1">
          <mxGeometry x="414" y="210" width="140" height="70" as="geometry" />
        </mxCell>
        <mxCell id="UNL7QGV5cmLo08s9R7C7-43" style="edgeStyle=orthogonalEdgeStyle;rounded=0;orthogonalLoop=1;jettySize=auto;html=1;entryX=0.5;entryY=1;entryDx=0;entryDy=0;dashed=1;" edge="1" parent="1" source="UNL7QGV5cmLo08s9R7C7-31" target="UNL7QGV5cmLo08s9R7C7-25">
          <mxGeometry relative="1" as="geometry" />
        </mxCell>
        <mxCell id="UNL7QGV5cmLo08s9R7C7-45" value="&amp;lt;&amp;lt;include&amp;gt;&amp;gt;" style="edgeLabel;html=1;align=center;verticalAlign=middle;resizable=0;points=[];" vertex="1" connectable="0" parent="UNL7QGV5cmLo08s9R7C7-43">
          <mxGeometry x="-0.3929" y="-1" relative="1" as="geometry">
            <mxPoint y="-6" as="offset" />
          </mxGeometry>
        </mxCell>
        <mxCell id="UNL7QGV5cmLo08s9R7C7-31" value="Realizar&lt;div&gt;Tests&lt;/div&gt;" style="ellipse;whiteSpace=wrap;html=1;" vertex="1" parent="1">
          <mxGeometry x="414" y="335" width="140" height="70" as="geometry" />
        </mxCell>
        <mxCell id="UNL7QGV5cmLo08s9R7C7-32" value="" style="edgeStyle=none;html=1;endArrow=none;verticalAlign=bottom;rounded=0;entryX=0;entryY=0.5;entryDx=0;entryDy=0;" edge="1" parent="1" target="UNL7QGV5cmLo08s9R7C7-16">
          <mxGeometry width="160" relative="1" as="geometry">
            <mxPoint x="160" y="250" as="sourcePoint" />
            <mxPoint x="320" y="250" as="targetPoint" />
          </mxGeometry>
        </mxCell>
        <mxCell id="UNL7QGV5cmLo08s9R7C7-34" value="" style="edgeStyle=none;html=1;endArrow=none;verticalAlign=bottom;rounded=0;entryX=0;entryY=1;entryDx=0;entryDy=0;" edge="1" parent="1" target="UNL7QGV5cmLo08s9R7C7-31">
          <mxGeometry width="160" relative="1" as="geometry">
            <mxPoint x="170" y="300" as="sourcePoint" />
            <mxPoint x="470" y="420" as="targetPoint" />
            <Array as="points">
              <mxPoint x="300" y="400" />
            </Array>
          </mxGeometry>
        </mxCell>
        <mxCell id="UNL7QGV5cmLo08s9R7C7-20" value="AUTENTIFICACIÓN" style="shape=umlActor;html=1;verticalLabelPosition=bottom;verticalAlign=top;align=center;" vertex="1" parent="1">
          <mxGeometry x="630" y="400" width="30" height="60" as="geometry" />
        </mxCell>
        <mxCell id="UNL7QGV5cmLo08s9R7C7-37" value="" style="edgeStyle=none;html=1;endArrow=none;verticalAlign=bottom;rounded=0;exitX=1;exitY=0.5;exitDx=0;exitDy=0;" edge="1" parent="1" source="UNL7QGV5cmLo08s9R7C7-12">
          <mxGeometry width="160" relative="1" as="geometry">
            <mxPoint x="440" y="434.28999999999996" as="sourcePoint" />
            <mxPoint x="620" y="440" as="targetPoint" />
          </mxGeometry>
        </mxCell>
        <mxCell id="UNL7QGV5cmLo08s9R7C7-46" value="" style="edgeStyle=none;html=1;endArrow=none;verticalAlign=bottom;rounded=0;entryX=0;entryY=0.5;entryDx=0;entryDy=0;" edge="1" parent="1" target="UNL7QGV5cmLo08s9R7C7-25">
          <mxGeometry width="160" relative="1" as="geometry">
            <mxPoint x="170" y="270" as="sourcePoint" />
            <mxPoint x="290" y="270" as="targetPoint" />
          </mxGeometry>
        </mxCell>
        <mxCell id="UNL7QGV5cmLo08s9R7C7-54" value="" style="edgeStyle=none;html=1;endArrow=open;verticalAlign=bottom;dashed=1;labelBackgroundColor=none;rounded=0;entryX=0.034;entryY=0.306;entryDx=0;entryDy=0;entryPerimeter=0;" edge="1" parent="1" target="UNL7QGV5cmLo08s9R7C7-31">
          <mxGeometry width="160" relative="1" as="geometry">
            <mxPoint x="330" y="190" as="sourcePoint" />
            <mxPoint x="410" y="350" as="targetPoint" />
            <Array as="points">
              <mxPoint x="360" y="320" />
            </Array>
          </mxGeometry>
        </mxCell>
        <mxCell id="UNL7QGV5cmLo08s9R7C7-55" value="&amp;lt;&amp;lt;include&amp;gt;&amp;gt;" style="edgeLabel;html=1;align=center;verticalAlign=middle;resizable=0;points=[];" vertex="1" connectable="0" parent="UNL7QGV5cmLo08s9R7C7-54">
          <mxGeometry x="0.0604" y="1" relative="1" as="geometry">
            <mxPoint x="-2" y="-3" as="offset" />
          </mxGeometry>
        </mxCell>
        <mxCell id="UNL7QGV5cmLo08s9R7C7-58" value="" style="rounded=0;whiteSpace=wrap;html=1;" vertex="1" parent="1">
          <mxGeometry x="240" y="680" width="330" height="460" as="geometry" />
        </mxCell>
        <mxCell id="UNL7QGV5cmLo08s9R7C7-59" value="&lt;font style=&quot;font-size: 20px;&quot;&gt;SELECCIÓN PACIENTES&lt;/font&gt;" style="text;html=1;align=center;verticalAlign=middle;whiteSpace=wrap;rounded=0;" vertex="1" parent="1">
          <mxGeometry x="217" y="687" width="303" height="30" as="geometry" />
        </mxCell>
        <mxCell id="UNL7QGV5cmLo08s9R7C7-60" value="USUARIO&lt;div&gt;REGISTRADO&lt;/div&gt;" style="shape=umlActor;html=1;verticalLabelPosition=bottom;verticalAlign=top;align=center;" vertex="1" parent="1">
          <mxGeometry x="150" y="880" width="30" height="60" as="geometry" />
        </mxCell>
        <mxCell id="UNL7QGV5cmLo08s9R7C7-61" value="Ver&lt;div&gt;Pacientes&lt;/div&gt;" style="ellipse;whiteSpace=wrap;html=1;" vertex="1" parent="1">
          <mxGeometry x="335" y="875" width="140" height="70" as="geometry" />
        </mxCell>
        <mxCell id="UNL7QGV5cmLo08s9R7C7-62" value="Añadir&lt;div&gt;Pacientes&lt;/div&gt;" style="ellipse;whiteSpace=wrap;html=1;" vertex="1" parent="1">
          <mxGeometry x="335" y="740" width="140" height="70" as="geometry" />
        </mxCell>
        <mxCell id="UNL7QGV5cmLo08s9R7C7-63" value="Editar&lt;div&gt;Pacientes&lt;/div&gt;" style="ellipse;whiteSpace=wrap;html=1;" vertex="1" parent="1">
          <mxGeometry x="335" y="1030" width="140" height="70" as="geometry" />
        </mxCell>
        <mxCell id="UNL7QGV5cmLo08s9R7C7-64" value="" style="edgeStyle=none;html=1;endArrow=none;verticalAlign=bottom;rounded=0;entryX=0;entryY=0.5;entryDx=0;entryDy=0;" edge="1" parent="1" target="UNL7QGV5cmLo08s9R7C7-62">
          <mxGeometry width="160" relative="1" as="geometry">
            <mxPoint x="180" y="870" as="sourcePoint" />
            <mxPoint x="340" y="870" as="targetPoint" />
          </mxGeometry>
        </mxCell>
        <mxCell id="UNL7QGV5cmLo08s9R7C7-65" value="" style="edgeStyle=none;html=1;endArrow=none;verticalAlign=bottom;rounded=0;entryX=0;entryY=0.5;entryDx=0;entryDy=0;" edge="1" parent="1" target="UNL7QGV5cmLo08s9R7C7-61">
          <mxGeometry width="160" relative="1" as="geometry">
            <mxPoint x="190" y="910" as="sourcePoint" />
            <mxPoint x="330" y="910" as="targetPoint" />
          </mxGeometry>
        </mxCell>
        <mxCell id="UNL7QGV5cmLo08s9R7C7-66" value="" style="edgeStyle=none;html=1;endArrow=none;verticalAlign=bottom;rounded=0;entryX=0;entryY=0.5;entryDx=0;entryDy=0;" edge="1" parent="1" target="UNL7QGV5cmLo08s9R7C7-63">
          <mxGeometry width="160" relative="1" as="geometry">
            <mxPoint x="210" y="980" as="sourcePoint" />
            <mxPoint x="370" y="980" as="targetPoint" />
          </mxGeometry>
        </mxCell>
        <mxCell id="UNL7QGV5cmLo08s9R7C7-70" value="" style="rounded=0;whiteSpace=wrap;html=1;" vertex="1" parent="1">
          <mxGeometry x="240" y="1294" width="330" height="326" as="geometry" />
        </mxCell>
        <mxCell id="UNL7QGV5cmLo08s9R7C7-71" value="&lt;font style=&quot;font-size: 20px;&quot;&gt;REALIZAR TESTS&lt;/font&gt;" style="text;html=1;align=center;verticalAlign=middle;whiteSpace=wrap;rounded=0;" vertex="1" parent="1">
          <mxGeometry x="217" y="1301" width="243" height="30" as="geometry" />
        </mxCell>
        <mxCell id="UNL7QGV5cmLo08s9R7C7-73" value="USUARIO&lt;div&gt;REGISTRADO&lt;/div&gt;" style="shape=umlActor;html=1;verticalLabelPosition=bottom;verticalAlign=top;align=center;" vertex="1" parent="1">
          <mxGeometry x="130" y="1427" width="30" height="60" as="geometry" />
        </mxCell>
        <mxCell id="UNL7QGV5cmLo08s9R7C7-74" value="Realizar&lt;div&gt;Tests&lt;/div&gt;" style="ellipse;whiteSpace=wrap;html=1;" vertex="1" parent="1">
          <mxGeometry x="335" y="1360" width="140" height="70" as="geometry" />
        </mxCell>
        <mxCell id="UNL7QGV5cmLo08s9R7C7-75" value="Ver&lt;br&gt;Resultados&lt;div&gt;Tests&lt;/div&gt;" style="ellipse;whiteSpace=wrap;html=1;" vertex="1" parent="1">
          <mxGeometry x="335" y="1530" width="140" height="70" as="geometry" />
        </mxCell>
        <mxCell id="UNL7QGV5cmLo08s9R7C7-76" value="" style="edgeStyle=none;html=1;endArrow=none;verticalAlign=bottom;rounded=0;entryX=0;entryY=0.5;entryDx=0;entryDy=0;" edge="1" parent="1" target="UNL7QGV5cmLo08s9R7C7-74">
          <mxGeometry width="160" relative="1" as="geometry">
            <mxPoint x="170" y="1440" as="sourcePoint" />
            <mxPoint x="330" y="1440" as="targetPoint" />
          </mxGeometry>
        </mxCell>
        <mxCell id="UNL7QGV5cmLo08s9R7C7-77" value="" style="edgeStyle=none;html=1;endArrow=none;verticalAlign=bottom;rounded=0;entryX=0;entryY=0.5;entryDx=0;entryDy=0;" edge="1" parent="1" target="UNL7QGV5cmLo08s9R7C7-75">
          <mxGeometry width="160" relative="1" as="geometry">
            <mxPoint x="180" y="1480" as="sourcePoint" />
            <mxPoint x="340" y="1480" as="targetPoint" />
          </mxGeometry>
        </mxCell>
        <mxCell id="UNL7QGV5cmLo08s9R7C7-78" value="" style="edgeStyle=none;html=1;endArrow=open;verticalAlign=bottom;dashed=1;labelBackgroundColor=none;rounded=0;exitX=0.5;exitY=1;exitDx=0;exitDy=0;entryX=0.5;entryY=0;entryDx=0;entryDy=0;" edge="1" parent="1" source="UNL7QGV5cmLo08s9R7C7-74" target="UNL7QGV5cmLo08s9R7C7-75">
          <mxGeometry width="160" relative="1" as="geometry">
            <mxPoint x="380" y="1470" as="sourcePoint" />
            <mxPoint x="540" y="1470" as="targetPoint" />
          </mxGeometry>
        </mxCell>
        <mxCell id="UNL7QGV5cmLo08s9R7C7-79" value="&lt;span style=&quot;background-color: rgb(251, 251, 251);&quot;&gt;&amp;lt;&amp;lt;extend&amp;gt;&amp;gt;&lt;/span&gt;" style="edgeLabel;html=1;align=center;verticalAlign=middle;resizable=0;points=[];" vertex="1" connectable="0" parent="UNL7QGV5cmLo08s9R7C7-78">
          <mxGeometry x="-0.12" y="1" relative="1" as="geometry">
            <mxPoint as="offset" />
          </mxGeometry>
        </mxCell>
      </root>
    </mxGraphModel>
  </diagram>
</mxfile>
